<?xml version="1.0" encoding="UTF-8"?>
<!DOCTYPE svg PUBLIC "-//W3C//DTD SVG 1.1//EN" "http://www.w3.org/Graphics/SVG/1.1/DTD/svg11.dtd">
<svg xmlns="http://www.w3.org/2000/svg" version="1.1" width="1000px" height="1000px" style="shape-rendering:geometricPrecision; text-rendering:geometricPrecision; image-rendering:optimizeQuality; fill-rule:evenodd; clip-rule:evenodd" xmlns:xlink="http://www.w3.org/1999/xlink">
<g><path style="opacity:0.998" fill="#fefffe" d="M -0.5,-0.5 C 332.833,-0.5 666.167,-0.5 999.5,-0.5C 999.5,332.833 999.5,666.167 999.5,999.5C 666.167,999.5 332.833,999.5 -0.5,999.5C -0.5,666.167 -0.5,332.833 -0.5,-0.5 Z M 708.5,337.5 C 778.854,338.523 849.187,340.023 919.5,342C 900.872,345.918 882.039,347.418 863,346.5C 795.498,345.472 727.998,344.306 660.5,343C 676.685,341.484 692.685,339.65 708.5,337.5 Z M 621.5,367.5 C 704.18,370.694 786.846,374.194 869.5,378C 852.139,382.073 834.639,385.239 817,387.5C 741.135,382.92 665.301,377.92 589.5,372.5C 600.302,370.821 610.969,369.154 621.5,367.5 Z M 539.5,408.5 C 636.552,414.876 733.552,422.042 830.5,430C 807.833,435.5 785.167,441 762.5,446.5C 674.51,436.297 586.51,426.131 498.5,416C 512.341,413.695 526.008,411.195 539.5,408.5 Z M 434.5,451.5 C 537.26,468.46 639.927,485.96 742.5,504C 710.861,508.247 679.195,511.914 647.5,515C 562.5,496 477.5,477 392.5,458C 406.625,455.821 420.625,453.655 434.5,451.5 Z M 282.5,482.5 C 287.844,482.334 293.177,482.501 298.5,483C 401.833,513 505.167,543 608.5,573C 562.85,576.291 517.183,578.957 471.5,581C 391.359,550.092 311.359,518.925 231.5,487.5C 248.641,485.774 265.641,484.108 282.5,482.5 Z M 67.5,516.5 C 92.6633,515.337 117.997,515.17 143.5,516C 234.343,563.588 325.343,610.922 416.5,658C 374.833,658.667 333.167,658.667 291.5,658C 216.946,610.562 142.279,563.395 67.5,516.5 Z"/></g>
</svg>
