<?xml version="1.0" encoding="utf-8"?>
<!DOCTYPE svg PUBLIC "-//W3C//DTD SVG 1.0//EN" "http://www.w3.org/TR/2001/REC-SVG-20010904/DTD/svg10.dtd">
<svg version="1.0" xmlns="http://www.w3.org/2000/svg" width="3000px" height="3000px" viewBox="0 0 3000 3000" preserveAspectRatio="xMidYMid meet">
 <g fill="#000000">
  <path d="M879.5 1979.6 c-0.6 -0.7 -153.7 -98.1 -340.3 -216.2 l-339.4 -214.9 115.5 -0.3 115.5 -0.2 413 214.2 c227.2 117.9 413 214.3 412.9 214.4 -0.1 0.1 -84 0.7 -186.4 1.4 -102.5 0.8 -186.3 1.7 -186.3 2.2 0 1.3 -3.4 0.9 -4.5 -0.6z"/>
  <path d="M1051.6 1604.7 c-202.3 -78.2 -367.3 -142.3 -366.5 -142.4 3.1 -0.6 195.3 -15.3 199.2 -15.3 4.7 0 951.5 274.3 948.2 274.8 -4.7 0.6 -403.1 25.2 -407.8 25.2 -4.5 -0.1 -57.2 -20.2 -373.1 -142.3z"/>
  <path d="M1558.5 1461.6 c-315.5 -70.7 -389.2 -87.5 -386 -88 9.8 -1.6 136.7 -17.6 139.7 -17.6 5.8 -0.1 927.9 156.5 926.1 157.2 -2.5 0.9 -282 35.9 -286.3 35.8 -1.9 -0.1 -179 -39.4 -393.5 -87.4z"/>
  <path d="M1886.7 1295.5 c-217.6 -24.8 -395.9 -45.4 -396.2 -45.6 -0.7 -0.8 141.7 -24.9 146.7 -24.9 4.7 0 863.7 64.8 865 65.3 0.4 0.1 -46.6 11.6 -104.5 25.5 -73 17.5 -106.7 25.2 -110.2 25.1 -2.7 -0.1 -183.1 -20.5 -400.8 -45.4z"/>
  <path d="M2102 1143 c-193.3 -12.5 -352.4 -22.9 -353.4 -23.1 -3.6 -0.7 121.3 -16.2 129.2 -16 9.4 0.2 738.3 29 743.2 29.3 2 0.2 -30.5 7.5 -73.5 16.6 -68.1 14.4 -78 16.3 -85.5 16.1 -4.7 -0.1 -166.7 -10.4 -360 -22.9z"/>
  <path d="M2334.5 1037.9 c-184.8 -3.2 -343.9 -5.8 -353.5 -5.9 l-17.5 -0.2 82.5 -8.9 c74.7 -8 84.4 -8.8 102.5 -8.9 11 0 153.2 2.3 316 5 162.8 2.7 301.6 5 308.5 5.1 l12.5 0.1 -54.5 9.3 c-30 5.1 -55.8 9.5 -57.5 9.7 -1.6 0.2 -154.2 -2.2 -339 -5.3z"/>
 </g>
</svg>